<?xml version="1.0"?>
<svg width="63.101" height="63.101" xmlns="http://www.w3.org/2000/svg" xmlns:svg="http://www.w3.org/2000/svg">
 <g>
  <title>Layer 1</title>
  <g id="svg_1">
   <path id="svg_2" fill="#ffd700" d="m52.274,20.208l-3.836,-3.855l1.789,-5.139l-5.135,-1.802l-0.617,-5.406l-5.408,0.596l-2.905,-4.602l-4.611,2.891l-4.61,-2.891l-2.903,4.602l-5.407,-0.596l-0.62,5.405l-5.135,1.802l1.789,5.139l-3.838,3.856l3.838,3.857l-1.789,5.137l5.134,1.802l0.618,5.405l5.407,-0.596l0.086,27.287l7.43,-8.017l7.428,8.018l0.086,-27.287l5.406,0.598l0.621,-5.406l5.135,-1.802l-1.789,-5.139l3.836,-3.857zm-20.723,13.196c-7.275,0 -13.195,-5.919 -13.195,-13.195c0,-7.275 5.92,-13.195 13.195,-13.195c7.276,0 13.196,5.92 13.196,13.195c-0.001,7.275 -5.921,13.195 -13.196,13.195zm10.902,-13.196c0,6.011 -4.891,10.902 -10.903,10.902c-6.011,0 -10.902,-4.891 -10.902,-10.902s4.892,-10.902 10.902,-10.902c6.013,0 10.903,4.891 10.903,10.902z"/>
  </g>
  <g id="svg_3"/>
  <g id="svg_4"/>
  <g id="svg_5"/>
  <g id="svg_6"/>
  <g id="svg_7"/>
  <g id="svg_8"/>
  <g id="svg_9"/>
  <g id="svg_10"/>
  <g id="svg_11"/>
  <g id="svg_12"/>
  <g id="svg_13"/>
  <g id="svg_14"/>
  <g id="svg_15"/>
  <g id="svg_16"/>
  <g id="svg_17"/>
 </g>
</svg>