<?xml version="1.0" encoding="UTF-8" standalone="no"?>
<svg
   xmlns:dc="http://purl.org/dc/elements/1.1/"
   xmlns:cc="http://creativecommons.org/ns#"
   xmlns:rdf="http://www.w3.org/1999/02/22-rdf-syntax-ns#"
   xmlns:svg="http://www.w3.org/2000/svg"
   xmlns="http://www.w3.org/2000/svg"
   xmlns:sodipodi="http://sodipodi.sourceforge.net/DTD/sodipodi-0.dtd"
   xmlns:inkscape="http://www.inkscape.org/namespaces/inkscape"
   width="63.101"
   height="63.101"
   id="svg2"
   version="1.1"
   inkscape:version="0.91 r13725"
   sodipodi:docname="canceled-plan.svg">
  <metadata
     id="metadata29">
    <rdf:RDF>
      <cc:Work
         rdf:about="">
        <dc:format>image/svg+xml</dc:format>
        <dc:type
           rdf:resource="http://purl.org/dc/dcmitype/StillImage" />
        <dc:title></dc:title>
      </cc:Work>
    </rdf:RDF>
  </metadata>
  <defs
     id="defs27" />
  <sodipodi:namedview
     pagecolor="#ffffff"
     bordercolor="#666666"
     borderopacity="1"
     objecttolerance="10"
     gridtolerance="10"
     guidetolerance="10"
     inkscape:pageopacity="0"
     inkscape:pageshadow="2"
     inkscape:window-width="1202"
     inkscape:window-height="979"
     id="namedview25"
     showgrid="false"
     inkscape:zoom="3.7400357"
     inkscape:cx="25.267138"
     inkscape:cy="31.550501"
     inkscape:window-x="65"
     inkscape:window-y="24"
     inkscape:window-maximized="0"
     inkscape:current-layer="svg2" />
  <g
     id="g4"
     style="fill:#000000">
    <title
       id="title6">Layer 1</title>
    <g
       id="svg_1"
       style="fill:#000000">
      <path
         id="svg_2"
         fill="#A86018"
         d="m52.274,20.208l-3.836,-3.855l1.789,-5.139l-5.135,-1.802l-0.617,-5.406l-5.408,0.596l-2.905,-4.602l-4.611,2.891l-4.61,-2.891l-2.903,4.602l-5.407,-0.596l-0.62,5.405l-5.135,1.802l1.789,5.139l-3.838,3.856l3.838,3.857l-1.789,5.137l5.134,1.802l0.618,5.405l5.407,-0.596l0.086,27.287l7.43,-8.017l7.428,8.018l0.086,-27.287l5.406,0.598l0.621,-5.406l5.135,-1.802l-1.789,-5.139l3.836,-3.857zm-20.723,13.196c-7.275,0 -13.195,-5.919 -13.195,-13.195c0,-7.275 5.92,-13.195 13.195,-13.195c7.276,0 13.196,5.92 13.196,13.195c-0.001,7.275 -5.921,13.195 -13.196,13.195zm10.902,-13.196c0,6.011 -4.891,10.902 -10.903,10.902c-6.011,0 -10.902,-4.891 -10.902,-10.902s4.892,-10.902 10.902,-10.902c6.013,0 10.903,4.891 10.903,10.902z"
         style="fill:#000000" />
    </g>
    <g
       id="svg_3"
       style="fill:#000000" />
    <g
       id="svg_4"
       style="fill:#000000" />
    <g
       id="svg_5"
       style="fill:#000000" />
    <g
       id="svg_6"
       style="fill:#000000" />
    <g
       id="svg_7"
       style="fill:#000000" />
    <g
       id="svg_8"
       style="fill:#000000" />
    <g
       id="svg_9"
       style="fill:#000000" />
    <g
       id="svg_10"
       style="fill:#000000" />
    <g
       id="svg_11"
       style="fill:#000000" />
    <g
       id="svg_12"
       style="fill:#000000" />
    <g
       id="svg_13"
       style="fill:#000000" />
    <g
       id="svg_14"
       style="fill:#000000" />
    <g
       id="svg_15"
       style="fill:#000000" />
    <g
       id="svg_16"
       style="fill:#000000" />
    <g
       id="svg_17"
       style="fill:#000000" />
  </g>
  <rect
     style="fill:#ff0000;stroke-width:0;stroke-miterlimit:0;stroke-dasharray:none"
     id="rect4161"
     width="5.7233367"
     height="71.276382"
     x="6.9144564"
     y="8.4646101"
     ry="1.7900411"
     transform="matrix(0.81235435,-0.58316414,0.53531344,0.84465349,0,0)" />
  <rect
     style="fill:#ff0000;stroke-width:0;stroke-miterlimit:0;stroke-dasharray:none"
     id="rect4161-5"
     width="5.7662807"
     height="73.048424"
     x="41.608356"
     y="-27.897572"
     ry="1.8345443"
     transform="matrix(0.83372929,0.5521734,-0.56510069,0.82502194,0,0)" />
</svg>
